<?xml version="1.0" encoding="UTF-8"?>
<svg id="Layer_2" data-name="Layer 2" xmlns="http://www.w3.org/2000/svg" viewBox="0 0 466.42 99.48">
  <defs>
    <style>
      .cls-1 {
        fill: none;
        stroke: #000;
        stroke-miterlimit: 10;
        stroke-width: 6px;
      }

      .cls-2 {
        stroke-width: 0px;
      }
    </style>
  </defs>
  <g id="Layer_1-2" data-name="Layer 1">
    <g>
      <path class="cls-2" d="m36.08,17.54v6.91h-19.3v12.89h17.71v6.84h-17.71v18.72H7.99V17.54h28.08Z"/>
      <path class="cls-2" d="m52.27,17.54v45.36h-8.78V17.54h8.78Z"/>
      <path class="cls-2" d="m62.71,17.54h8.78v38.3h18.65v7.06h-27.43V17.54Z"/>
      <path class="cls-2" d="m96.12,17.54h8.78v38.3h18.65v7.06h-27.43V17.54Z"/>
      <path class="cls-2" d="m138.31,17.54v45.36h-8.78V17.54h8.78Z"/>
      <path class="cls-2" d="m148.75,17.54h7.92l17.28,25.49c.96,1.44,1.85,2.87,2.66,4.28.82,1.42,1.46,2.58,1.94,3.49h.14c-.29-3.31-.43-6.64-.43-9.97v-23.29h8.28v45.36h-7.92l-16.49-24.12c-1.1-1.63-2.15-3.34-3.13-5.11-.98-1.78-1.74-3.22-2.27-4.32h-.14c.24,3.55.37,7,.4,10.33.02,3.34.04,6.73.04,10.19v13.03h-8.28V17.54Z"/>
      <path class="cls-2" d="m218.16,16.82c2.74,0,5.2.22,7.38.65,2.18.43,4.16,1.08,5.94,1.94l-1.87,6.19c-1.68-.82-3.41-1.4-5.18-1.76-1.78-.36-3.58-.54-5.4-.54-2.02,0-3.92.31-5.72.94-1.8.62-3.38,1.62-4.75,2.99-1.37,1.37-2.45,3.12-3.24,5.26-.79,2.14-1.19,4.74-1.19,7.81,0,5.42,1.21,9.58,3.64,12.46,2.42,2.88,5.89,4.32,10.4,4.32,2.83,0,5.04-.31,6.62-.94v-11.23h-7.85v-6.62h16.2v22.61c-1.92.82-4.1,1.48-6.55,1.98-2.45.5-5.26.76-8.42.76s-6.32-.5-9.18-1.51c-2.86-1.01-5.34-2.5-7.45-4.46-2.11-1.97-3.77-4.4-4.97-7.31-1.2-2.9-1.8-6.25-1.8-10.04s.6-7.15,1.8-10.08c1.2-2.93,2.84-5.39,4.93-7.38,2.09-1.99,4.56-3.49,7.42-4.5,2.85-1.01,5.94-1.51,9.25-1.51Z"/>
      <path class="cls-2" d="m258.62,17.54h15.34c2.54,0,4.85.31,6.91.94,2.06.62,3.84,1.52,5.33,2.7,1.49,1.18,2.63,2.62,3.42,4.32.79,1.7,1.19,3.66,1.19,5.87,0,2.54-.46,4.73-1.37,6.55-.91,1.82-2.16,3.35-3.74,4.57s-3.46,2.12-5.62,2.7c-2.16.58-4.49.86-6.98.86h-5.69v16.85h-8.78V17.54Zm8.78,21.67h4.03c1.44,0,2.78-.12,4.03-.36,1.25-.24,2.34-.65,3.28-1.22s1.67-1.34,2.2-2.3c.53-.96.79-2.16.79-3.6,0-1.3-.24-2.41-.72-3.35-.48-.94-1.14-1.7-1.98-2.3-.84-.6-1.81-1.04-2.92-1.33-1.1-.29-2.26-.43-3.46-.43h-5.26v14.9Z"/>
      <path class="cls-2" d="m306.86,17.54v45.36h-8.78V17.54h8.78Z"/>
      <path class="cls-2" d="m316.94,17.54h28.8v6.91h-20.02v11.45h18.14v6.84h-18.14v13.25h20.23v6.91h-29.02V17.54Z"/>
      <path class="cls-2" d="m374.98,56.71c2.26,0,4.15-.19,5.69-.58,1.54-.38,2.93-.91,4.18-1.58l1.87,6.62c-1.34.67-3.05,1.25-5.11,1.73-2.06.48-4.58.72-7.56.72-3.27,0-6.3-.53-9.11-1.58-2.81-1.06-5.23-2.58-7.27-4.57-2.04-1.99-3.64-4.44-4.79-7.34-1.15-2.9-1.73-6.2-1.73-9.9s.55-6.85,1.66-9.76c1.1-2.9,2.67-5.36,4.72-7.38,2.04-2.02,4.48-3.56,7.31-4.64s5.98-1.62,9.43-1.62c3.07,0,5.59.26,7.56.79,1.97.53,3.65,1.15,5.04,1.87l-2.02,6.62c-1.44-.72-2.91-1.3-4.39-1.73-1.49-.43-3.22-.65-5.18-.65s-3.92.3-5.72.9c-1.8.6-3.36,1.56-4.68,2.88-1.32,1.32-2.38,3.02-3.17,5.11s-1.19,4.62-1.19,7.6.38,5.36,1.15,7.45,1.8,3.8,3.1,5.15c1.3,1.34,2.82,2.33,4.57,2.95,1.75.62,3.64.94,5.65.94Z"/>
      <path class="cls-2" d="m394.2,17.54h28.8v6.91h-20.02v11.45h18.14v6.84h-18.14v13.25h20.23v6.91h-29.02V17.54Z"/>
      <path class="cls-2" d="m445.1,16.82c2.69,0,5.12.25,7.31.76,2.18.5,4.19,1.21,6.01,2.12l-2.02,6.77c-1.97-.96-3.84-1.68-5.62-2.16-1.78-.48-3.53-.72-5.26-.72-2.45,0-4.36.5-5.72,1.51-1.37,1.01-2.05,2.38-2.05,4.1s.56,2.96,1.69,3.85c1.13.89,2.94,1.74,5.44,2.56l4.39,1.44c3.74,1.25,6.6,2.98,8.57,5.18,1.97,2.21,2.95,4.82,2.95,7.85,0,1.97-.38,3.77-1.15,5.4-.77,1.63-1.87,3.06-3.31,4.28-1.44,1.22-3.2,2.17-5.29,2.84-2.09.67-4.45,1.01-7.09,1.01s-5.11-.25-7.56-.76c-2.45-.5-4.8-1.31-7.06-2.41l2.02-6.7c2.06,1.01,4.08,1.78,6.05,2.3,1.97.53,4.03.79,6.19.79,2.59,0,4.62-.5,6.08-1.51,1.46-1.01,2.2-2.47,2.2-4.39,0-.67-.12-1.32-.36-1.94-.24-.62-.66-1.21-1.26-1.76-.6-.55-1.42-1.08-2.45-1.58s-2.36-1.02-4-1.55l-4.03-1.37c-3.31-1.15-5.96-2.68-7.96-4.57-1.99-1.9-2.99-4.57-2.99-8.03,0-3.98,1.39-7.2,4.18-9.65,2.78-2.45,6.82-3.67,12.1-3.67Z"/>
    </g>
    <line class="cls-1" x1="6.81" y1="3" x2="35.8" y2="3"/>
    <line class="cls-1" x1="429.52" y1="73.96" x2="461.85" y2="73.96"/>
  </g>
</svg>